<svg version="1.1" id="Layer_1" xmlns="http://www.w3.org/2000/svg" xmlns:xlink="http://www.w3.org/1999/xlink" x="0px" y="0px" width="100%" viewBox="0 0 500 500" enable-background="new 0 0 500 500" xml:space="preserve">

<path fill="#F1FAEE" opacity="1.000000" stroke="none" d="
M179.999741,244.000183 
	C171.187866,227.685440 165.929886,210.724747 167.125992,192.447006 
	C168.256714,175.168915 174.566025,159.717331 185.400726,145.964294 
	C197.571823,130.514923 213.311737,120.932709 232.132141,116.484772 
	C257.444275,110.502602 280.767609,115.956406 301.528137,131.201096 
	C319.747314,144.579651 329.965179,163.271667 333.922028,185.318176 
	C337.222717,203.708954 333.726410,221.401566 325.423767,237.771408 
	C318.526123,251.371109 310.073242,264.187958 302.185638,277.277100 
	C298.352997,283.637238 296.126770,290.397858 295.999481,297.832916 
	C295.871460,305.309479 297.085632,313.064209 292.934906,319.862427 
	C290.706024,323.512878 287.641296,326.653015 285.458527,329.390381 
	C286.853027,330.250183 289.748016,331.030823 290.728333,332.845703 
	C292.857758,336.788116 289.936218,339.960663 284.548706,339.983673 
	C272.389099,340.035583 260.229095,340.000000 248.069275,340.000000 
	C238.074890,340.000000 228.080109,339.948425 218.086349,340.027679 
	C214.531647,340.055847 211.288834,339.567780 211.076752,335.254944 
	C210.867355,330.996521 213.932114,329.923767 218.039963,329.860748 
	C210.113495,324.366089 206.726822,317.342072 206.830246,307.843384 
	C206.990204,293.154572 203.400146,279.618744 193.616882,267.715210 
	C187.977051,260.853058 184.492371,252.219604 179.999741,244.000183 
M311.529602,243.977539 
	C314.010040,238.742599 316.749054,233.612427 318.921143,228.252518 
	C324.798859,213.748581 327.141266,198.618134 323.561157,183.305908 
	C318.771881,162.822144 307.971710,146.258286 289.589264,135.002472 
	C273.122131,124.919434 255.334198,121.521248 236.724304,125.321083 
	C218.600571,129.021667 203.237991,138.226303 192.085388,153.459534 
	C182.796753,166.146759 177.346268,180.214813 176.971573,196.129715 
	C176.505936,215.907166 184.591553,232.930435 194.062286,249.444626 
	C198.306610,256.845490 203.593628,263.643860 207.932938,270.995758 
	C214.477890,282.084595 216.543945,294.239777 216.100510,307.071472 
	C215.758331,316.973907 221.563400,322.371002 231.003571,322.101532 
	C244.823898,321.707001 258.667572,321.810181 272.493866,322.080994 
	C279.288879,322.214081 285.864624,317.202179 285.990997,308.573578 
	C286.044678,304.908142 285.732025,301.217682 286.052277,297.579681 
	C286.879059,288.186798 289.038483,279.200806 294.317261,271.122314 
	C300.039124,262.365814 305.478973,253.425034 311.529602,243.977539 
z" data-index="1" style="visibility: hidden;"></path>
<path fill="#F1FAEE" opacity="1.000000" stroke="none" d="
M219.896912,370.347046 
	C221.169632,369.633392 222.322495,369.044373 223.477203,369.040710 
	C241.754044,368.982788 260.032104,369.096497 278.307251,368.912140 
	C281.645935,368.878448 283.489288,370.056580 283.454376,373.110565 
	C283.424103,375.758270 282.610077,377.517975 278.861328,378.305084 
	C273.347198,379.462830 268.351868,382.901978 262.975586,384.949219 
	C254.464294,388.190125 245.993652,388.296906 237.536163,384.214325 
	C232.519897,381.792816 227.100189,380.217773 222.022873,377.908203 
	C218.982620,376.525299 217.122894,374.193359 219.896912,370.347046 
z" data-index="2" style="opacity: 1;"></path>
<path fill="#F1FAEE" opacity="1.000000" stroke="none" d="
M239.000122,343.000000 
	C253.306503,343.000000 267.113037,343.026733 280.919312,342.979004 
	C283.929657,342.968628 286.402863,343.147247 287.067780,346.998596 
	C287.846222,351.507629 284.867310,352.252319 281.760315,352.936127 
	C280.489807,353.215790 279.108917,352.999115 277.778229,352.999207 
	C259.813232,353.000397 241.848114,353.028381 223.883392,352.958221 
	C221.985703,352.950806 219.656311,352.930786 218.307861,351.897675 
	C216.755081,350.708008 215.266846,348.374878 215.291321,346.559174 
	C215.307571,345.354095 217.969635,343.261719 219.547256,343.162994 
	C225.843643,342.768921 232.179138,343.000183 239.000122,343.000000 
z" data-index="3" style="opacity: 1;"></path>

<path fill="#000000" opacity="1.000000" stroke="none" d="
M311.285706,244.271072 
	C305.478973,253.425034 300.039124,262.365814 294.317261,271.122314 
	C289.038483,279.200806 286.879059,288.186798 286.052277,297.579681 
	C285.732025,301.217682 286.044678,304.908142 285.990997,308.573578 
	C285.864624,317.202179 279.288879,322.214081 272.493866,322.080994 
	C258.667572,321.810181 244.823898,321.707001 231.003571,322.101532 
	C221.563400,322.371002 215.758331,316.973907 216.100510,307.071472 
	C216.543945,294.239777 214.477890,282.084595 207.932938,270.995758 
	C203.593628,263.643860 198.306610,256.845490 194.062286,249.444626 
	C184.591553,232.930435 176.505936,215.907166 176.971573,196.129715 
	C177.346268,180.214813 182.796753,166.146759 192.085388,153.459534 
	C203.237991,138.226303 218.600571,129.021667 236.724304,125.321083 
	C255.334198,121.521248 273.122131,124.919434 289.589264,135.002472 
	C307.971710,146.258286 318.771881,162.822144 323.561157,183.305908 
	C327.141266,198.618134 324.798859,213.748581 318.921143,228.252518 
	C316.749054,233.612427 314.010040,238.742599 311.285706,244.271072 
M203.712784,163.195526 
	C200.473068,163.023666 197.233368,162.851791 193.910110,162.675491 
	C188.582748,171.014847 188.582520,171.015015 194.285690,178.783798 
	C194.383148,178.916565 194.530945,179.013992 194.620636,179.150620 
	C196.462082,181.955658 193.704147,190.750931 190.616318,192.147064 
	C187.850296,193.397705 184.572601,194.205200 182.543732,196.232208 
	C179.680847,199.092499 182.510437,207.253326 186.389359,208.759155 
	C187.583130,209.222595 188.862762,209.485458 190.018661,210.022034 
	C193.998840,211.869659 196.736496,220.310303 193.944519,223.610733 
	C189.316223,229.081879 187.438004,234.204376 194.466507,239.974792 
	C195.606445,239.974792 197.818481,240.286392 199.911728,239.919769 
	C208.093445,238.486740 214.702972,245.461487 212.830063,253.564056 
	C212.437576,255.262039 212.018448,257.758453 212.898407,258.806091 
	C216.619370,263.236084 221.998077,263.544678 226.379929,260.113861 
	C232.200180,255.556885 240.612259,257.140503 242.783768,264.058838 
	C244.595840,269.831909 247.921600,270.347015 252.825729,270.104462 
	C255.849915,269.954895 257.495056,269.484528 258.180481,266.075775 
	C258.683502,263.574127 260.196503,259.901001 262.062256,259.317627 
	C266.781738,257.842041 272.030823,255.190567 276.590393,260.755157 
	C279.671967,264.515991 283.474945,262.589600 286.962677,260.545074 
	C290.226105,258.632019 290.275116,256.420837 289.189453,252.903641 
	C287.455597,247.286545 294.244904,238.311966 299.009460,239.028168 
	C302.201447,239.507980 305.402435,239.927948 307.121948,240.168228 
	C314.957703,234.064499 312.338623,228.907745 307.985138,223.516296 
	C305.548676,220.498932 308.128632,211.669159 311.616089,210.069138 
	C314.350311,208.814682 317.205017,207.822784 319.838043,206.780777 
	C320.248505,196.459885 320.248505,196.459885 312.489532,192.929184 
	C307.218536,190.530624 305.230011,182.144012 308.861816,177.629089 
	C313.737549,171.567703 313.731812,171.571442 309.142578,164.495239 
	C308.712341,163.831833 308.414520,163.082550 308.152771,162.565765 
	C303.965302,162.906784 299.707947,164.301178 296.123291,163.296143 
	C290.941559,161.843338 287.951019,153.800583 289.212891,148.337585 
	C289.543579,146.905960 289.913544,144.878632 289.199524,143.913391 
	C285.800049,139.317795 280.486206,138.814850 276.189056,142.317230 
	C269.722809,147.587494 260.920044,145.531738 258.415985,137.568466 
	C257.061981,133.262634 254.660675,132.133209 250.844315,131.990005 
	C246.718689,131.835205 244.397736,134.091171 243.045822,137.680374 
	C240.126373,145.431213 232.296036,147.617889 225.942749,142.467133 
	C225.201309,141.866058 224.202240,141.550659 223.544083,140.884125 
	C219.027740,136.310410 217.081299,143.056183 213.597031,143.330185 
	C213.047394,143.373413 212.102921,147.031113 212.484146,148.766479 
	C214.052567,155.905792 211.677551,160.567703 203.712784,163.195526 
M275.033997,288.345093 
	C274.182434,286.304901 273.330841,284.264740 272.492188,282.218567 
	C265.932495,281.822205 265.819397,281.770691 263.262115,287.385437 
	C260.085876,294.359161 257.120514,301.428894 253.930023,308.765442 
	C257.633698,308.978027 260.350983,309.531708 263.340973,305.682739 
	C264.860260,303.726959 272.944000,303.776306 274.757202,305.832245 
	C277.864807,309.355896 280.422913,309.028503 284.275238,308.712189 
	C281.216614,301.842346 278.356995,295.419464 275.033997,288.345093 
M224.924576,302.979004 
	C223.782669,302.402832 222.640747,301.826630 221.428650,301.215057 
	C220.600372,302.867676 219.745285,304.573822 218.800385,306.459137 
	C223.522781,310.040802 228.926407,310.789001 234.167923,309.721497 
	C238.018387,308.937378 241.999924,306.691498 241.948166,301.653412 
	C241.900940,297.056458 239.128281,294.761414 234.718826,293.900299 
	C232.091888,293.387268 229.576233,292.304352 226.557220,291.331543 
	C227.195801,290.175812 227.721497,288.433838 228.225235,288.440155 
	C231.660355,288.483307 235.090851,288.894135 238.969498,289.224396 
	C239.387802,288.037994 240.045303,286.173187 241.024582,283.395782 
	C236.442062,282.897552 232.317993,282.091858 228.194702,282.095673 
	C223.539032,282.099945 220.315598,285.311737 220.000687,289.359985 
	C219.536926,295.322021 220.519455,296.469849 226.598267,298.053925 
	C229.477020,298.804108 232.230835,300.033783 235.134171,301.079681 
	C232.352448,305.228424 229.070084,304.303650 224.924576,302.979004 
M245.000000,291.534668 
	C245.000000,297.307312 245.000000,303.079987 245.000000,308.698303 
	C247.667877,308.698303 249.737030,308.698303 251.706482,308.698303 
	C251.706482,299.646515 251.706482,290.899353 251.706482,282.304138 
	C249.338287,282.304138 247.269333,282.304138 245.000000,282.304138 
	C245.000000,285.251678 245.000000,287.899506 245.000000,291.534668 
z" data-index="5" style="visibility: hidden;"></path>

<path fill="#F1FAEE" opacity="1.000000" stroke="none" d="
M275.265686,288.670837 
	C278.356995,295.419464 281.216614,301.842346 284.275238,308.712189 
	C280.422913,309.028503 277.864807,309.355896 274.757202,305.832245 
	C272.944000,303.776306 264.860260,303.726959 263.340973,305.682739 
	C260.350983,309.531708 257.633698,308.978027 253.930023,308.765442 
	C257.120514,301.428894 260.085876,294.359161 263.262115,287.385437 
	C265.819397,281.770691 265.932495,281.822205 272.485718,282.221558 
	C273.330841,284.264740 274.182434,286.304901 275.265686,288.670837 
M269.976166,291.936890 
	C269.908478,291.784943 269.862427,291.616821 269.765259,291.486908 
	C269.703613,291.404510 269.481232,291.324768 269.474304,291.335602 
	C268.213745,293.304688 266.966095,295.282013 265.401276,297.760742 
	C268.055634,297.760742 269.941376,297.760742 272.154877,297.760742 
	C271.358032,295.889618 270.680267,294.298126 269.976166,291.936890 
z" data-index="7" style="opacity: 1;"></path>
<path fill="#F1FAEE" opacity="1.000000" stroke="none" d="
M225.325378,302.991455 
	C229.070084,304.303650 232.352448,305.228424 235.134171,301.079681 
	C232.230835,300.033783 229.477020,298.804108 226.598267,298.053925 
	C220.519455,296.469849 219.536926,295.322021 220.000687,289.359985 
	C220.315598,285.311737 223.539032,282.099945 228.194702,282.095673 
	C232.317993,282.091858 236.442062,282.897552 241.024582,283.395782 
	C240.045303,286.173187 239.387802,288.037994 238.969498,289.224396 
	C235.090851,288.894135 231.660355,288.483307 228.225235,288.440155 
	C227.721497,288.433838 227.195801,290.175812 226.557220,291.331543 
	C229.576233,292.304352 232.091888,293.387268 234.718826,293.900299 
	C239.128281,294.761414 241.900940,297.056458 241.948166,301.653412 
	C241.999924,306.691498 238.018387,308.937378 234.167923,309.721497 
	C228.926407,310.789001 223.522781,310.040802 218.800385,306.459137 
	C219.745285,304.573822 220.600372,302.867676 221.428650,301.215057 
	C222.640747,301.826630 223.782669,302.402832 225.325378,302.991455 
z" data-index="8" style="opacity: 1;"></path>

<path fill="#000000" opacity="1.000000" stroke="none" d="
M284.483673,145.815430 
	C284.898865,148.650330 285.025635,151.314468 284.979248,153.975571 
	C284.929962,156.799774 286.078156,158.554565 287.910400,160.947617 
	C292.318542,166.705032 297.180206,168.187469 303.976318,167.165222 
	C307.409821,166.648788 309.645691,171.156555 307.094666,173.128281 
	C298.967773,179.409805 304.454681,186.645294 305.462646,193.339584 
	C305.694275,194.877884 310.126190,195.536499 312.233673,197.120682 
	C313.813934,198.308563 315.633820,200.291382 315.712646,201.995880 
	C315.771240,203.263092 313.433411,205.218277 311.771790,205.870514 
	C308.052460,207.330460 305.780029,208.740005 304.411285,213.406403 
	C302.621796,219.507126 301.921753,224.232681 306.463898,229.162704 
	C307.384003,230.161362 307.488373,232.888718 306.772369,234.127686 
	C306.127197,235.244019 303.467194,236.320419 302.339691,235.854919 
	C293.647064,232.266113 290.020966,239.237411 285.953583,244.044891 
	C284.417236,245.860794 285.723602,249.945404 285.371582,252.953415 
	C285.175964,254.625137 284.651093,256.724976 283.491089,257.665070 
	C282.611359,258.378021 279.705048,258.176331 279.049500,257.333008 
	C272.947205,249.482910 265.953888,253.925476 259.594055,256.196533 
	C257.461578,256.958008 256.648193,261.050720 254.882950,263.353271 
	C253.974106,264.538727 252.294907,265.815430 250.970703,265.808075 
	C249.657181,265.800781 247.389404,264.406067 247.194366,263.322235 
	C245.466232,253.718048 236.566940,254.959412 230.437729,252.384186 
	C229.133743,251.836319 226.412994,255.127853 224.147034,256.251343 
	C222.398636,257.118195 220.044937,258.211792 218.491837,257.672882 
	C216.363159,256.934296 215.801224,254.981888 216.731842,252.070038 
	C218.205429,247.459244 216.700104,243.305267 212.586502,239.864410 
	C208.982040,236.849396 206.283279,233.227158 200.704132,235.802704 
	C199.338379,236.433151 196.052124,235.411697 195.290894,234.155029 
	C194.490448,232.833679 194.927856,229.523743 196.088013,228.456818 
	C203.026535,222.075806 197.168396,215.534866 196.407425,209.216782 
	C196.250336,207.912506 192.283600,207.229996 190.285675,205.932938 
	C188.689774,204.896881 186.246262,203.323578 186.288147,202.058594 
	C186.344772,200.349228 188.211639,197.482346 189.665283,197.233231 
	C199.457870,195.555252 197.151428,186.563766 199.699814,180.723755 
	C200.271866,179.412781 197.094437,176.618576 195.948624,174.352722 
	C195.150436,172.774353 193.986008,170.442032 194.596558,169.336105 
	C195.306427,168.050323 197.724289,167.339386 199.495819,167.108978 
	C201.353241,166.867416 203.320587,167.515457 205.245270,167.725357 
	C206.039215,167.811920 207.179443,168.122635 207.595917,167.730316 
	C210.762756,164.747131 214.187881,161.898804 216.678467,158.400452 
	C217.793533,156.834183 217.695557,153.541611 216.842957,151.607880 
	C214.748032,146.856445 217.154572,145.227661 221.178268,144.094254 
	C222.956024,145.427933 224.735825,147.217789 226.881897,148.234619 
	C228.722183,149.106583 230.969910,149.222397 233.061096,149.411942 
	C233.945831,149.492142 234.874969,148.738388 235.811401,148.647919 
	C242.257492,148.025208 246.242020,144.857864 247.482971,138.254669 
	C247.659561,137.315018 249.792770,136.159454 251.016296,136.164215 
	C252.241547,136.168945 254.441498,137.398376 254.533905,138.269318 
	C255.571121,148.043350 263.848572,148.133682 270.400909,149.693527 
	C272.665771,150.232681 276.154602,147.824448 278.336060,145.909897 
	C280.571686,143.947845 282.102417,143.960098 284.483673,145.815430 
M232.628693,154.997604 
	C224.890335,158.172028 218.447189,162.969101 212.986771,169.394272 
	C202.323807,181.941147 198.664978,196.546982 202.266479,212.097275 
	C208.329391,238.275330 232.979187,255.232208 260.315979,250.126694 
	C284.024933,245.698715 301.062378,224.935913 300.823792,200.750793 
	C300.678375,186.011536 294.878357,173.286209 283.130829,163.554688 
	C268.123932,151.123123 251.539078,148.960205 232.628693,154.997604 
z" data-index="10" style="visibility: hidden;"></path>

<path fill="#F1FAEE" opacity="1.000000" stroke="none" d="
M233.035828,154.972610 
	C251.539078,148.960205 268.123932,151.123123 283.130829,163.554688 
	C294.878357,173.286209 300.678375,186.011536 300.823792,200.750793 
	C301.062378,224.935913 284.024933,245.698715 260.315979,250.126694 
	C232.979187,255.232208 208.329391,238.275330 202.266479,212.097275 
	C198.664978,196.546982 202.323807,181.941147 212.986771,169.394272 
	C218.447189,162.969101 224.890335,158.172028 233.035828,154.972610 
M285.267853,179.003983 
	C284.858612,179.041702 284.449341,179.079422 284.018829,178.467178 
	C284.012695,178.033676 284.006561,177.600159 284.802094,177.001846 
	C285.197021,176.424332 285.591980,175.846817 285.986908,175.269287 
	C284.650421,174.537003 283.313934,173.804703 281.288025,172.694672 
	C283.188873,172.220917 284.405273,171.917755 285.712799,171.591873 
	C268.819366,152.273514 239.855209,149.779419 220.403076,167.310776 
	C202.991104,183.003418 197.123016,210.463379 218.419525,233.492874 
	C232.521103,248.741959 260.472198,255.066040 282.964081,233.950760 
	C298.639954,219.234314 302.225677,193.357773 288.135895,175.473831 
	C288.030762,176.698929 287.932068,177.849289 287.183838,179.006287 
	C286.751007,179.018280 286.318146,179.030289 285.267853,179.003983 
z" data-index="12" style="visibility: hidden;"></path>

<path fill="#F1FAEE" opacity="1.000000" stroke="none" d="
M287.508606,179.002960 
	C287.884613,185.024551 287.935883,191.049438 287.632446,197.537140 
	C286.907410,197.999847 286.537018,197.999756 286.166656,197.999649 
	C286.166656,193.212051 286.166656,188.424438 286.166656,183.998016 
	C281.917816,183.998016 278.065613,184.089844 274.225067,183.919434 
	C273.469788,183.885910 272.759430,182.839951 272.028351,182.260925 
	C272.753143,181.841278 273.462585,181.094421 274.205475,181.059494 
	C277.181458,180.919601 280.171814,181.086639 283.148102,180.949951 
	C284.102509,180.906113 285.029968,180.275360 285.927551,179.477692 
	C286.318146,179.030289 286.751007,179.018280 287.508606,179.002960 
z" data-index="14" style="visibility: hidden;"></path>

<path fill="#F1FAEE" opacity="1.000000" stroke="none" d="
M219.000000,214.993469 
	C219.000000,207.192154 219.000000,199.889191 219.000000,192.288513 
	C217.409302,192.121628 216.006058,191.974396 213.117294,191.671326 
	C214.252136,188.969818 214.586380,185.459930 216.293015,184.563889 
	C225.513824,179.722595 235.151733,175.683258 244.475754,171.026855 
	C247.669510,169.431915 249.460632,171.852234 251.921936,172.380310 
	C258.737244,173.842575 261.257324,177.824677 260.061890,184.611679 
	C259.668823,186.843246 260.000000,189.202362 260.000000,191.883606 
	C248.651871,191.883606 237.588226,191.883606 226.136169,191.883606 
	C226.136169,204.326385 226.136169,216.389496 226.136169,228.723663 
	C223.689728,228.723663 221.620972,228.723663 219.000000,228.723663 
	C219.000000,224.365692 219.000000,219.928757 219.000000,214.993469 
M247.483246,182.000000 
	C245.008011,182.000824 242.525955,181.900421 240.061813,182.066269 
	C239.354401,182.113876 238.698730,182.930420 238.019348,183.394394 
	C238.628159,183.928558 239.224915,184.909103 239.847672,184.925903 
	C244.629654,185.054810 249.418274,185.054886 254.200134,184.923386 
	C254.806534,184.906708 255.385620,183.896423 255.977356,183.346481 
	C255.283096,182.898438 254.621384,182.140686 253.888168,182.063644 
	C252.092728,181.875076 250.264252,182.000763 247.483246,182.000000 
z" data-index="16" style="visibility: hidden;"></path>

<path fill="#F1FAEE" opacity="1.000000" stroke="none" d="
M269.000000,210.158173 
	C269.000000,208.563995 269.000000,207.452179 269.000000,206.190979 
	C271.489014,206.190979 273.544434,206.190979 275.799500,206.190979 
	C275.799500,213.744431 275.799500,221.109192 275.799500,228.737701 
	C273.669952,228.737701 271.613037,228.737701 269.000000,228.737701 
	C269.000000,222.755112 269.000000,216.697815 269.000000,210.158173 
z" data-index="18" style="visibility: hidden;"></path>

<path fill="#F1FAEE" opacity="1.000000" stroke="none" d="
M242.999649,217.833344 
	C239.186752,217.833344 235.373871,217.833344 231.445496,217.833344 
	C231.445496,214.230331 231.445496,210.666367 231.445496,207.135788 
	C233.044968,208.899155 234.441284,210.438553 235.837601,211.977936 
	C236.823883,210.535141 237.810165,209.092346 239.021271,207.320663 
	C240.409470,208.530807 244.399536,204.048645 244.617569,210.274261 
	C243.834137,213.251480 243.416901,215.542404 242.999649,217.833344 
z" data-index="20" style="visibility: hidden;"></path>

<path fill="#F1FAEE" opacity="1.000000" stroke="none" d="
M239.782761,205.967224 
	C236.694855,205.995407 234.081253,205.995407 231.270508,205.995407 
	C231.270508,202.510193 231.270508,199.339096 231.270508,195.945938 
	C233.220947,197.661804 234.954132,199.186539 236.791290,200.802734 
	C238.015305,198.427933 238.735901,197.029861 239.456482,195.631775 
	C240.034988,195.799728 240.613480,195.967667 241.191971,196.135605 
	C240.880341,199.403412 240.568710,202.671234 239.782761,205.967224 
z" data-index="22" style="visibility: hidden;"></path>

<path fill="#F1FAEE" opacity="1.000000" stroke="none" d="
M277.062439,188.000000 
	C275.447021,187.989395 274.178253,188.263733 273.195007,187.853561 
	C272.666473,187.633072 272.135468,185.848618 272.456573,185.442108 
	C273.641937,183.941483 283.246124,185.363266 285.716370,188.000000 
	C282.475708,188.000000 280.001801,188.000000 277.062439,188.000000 
z" data-index="24" style="visibility: hidden;"></path>

<path fill="#F1FAEE" opacity="1.000000" stroke="none" d="
M243.438721,217.910126 
	C243.416901,215.542404 243.834137,213.251480 244.541870,210.600311 
	C245.188950,210.619720 245.545517,210.999390 246.028915,212.018967 
	C248.048264,213.288315 249.940796,213.917755 251.833313,214.547195 
	C251.882202,214.944199 251.931107,215.341187 251.627121,216.376984 
	C251.183029,217.288300 251.091797,217.560822 251.000549,217.833344 
	C248.626297,217.884521 246.252029,217.935699 243.438721,217.910126 
z" data-index="26" style="visibility: hidden;"></path>

<path fill="#F1FAEE" opacity="1.000000" stroke="none" d="
M237.483887,222.976929 
	C238.442154,223.414841 238.998367,223.872482 239.554596,224.330139 
	C238.803223,224.838730 238.047272,225.777893 237.301392,225.769989 
	C235.520554,225.751068 233.744476,225.285568 231.566574,225.000381 
	C231.166656,223.019745 231.166656,221.039154 231.166656,219.605042 
	C233.338882,220.850540 235.210358,221.923615 237.483887,222.976929 
z" data-index="28" style="visibility: hidden;"></path>

<path fill="#F1FAEE" opacity="1.000000" stroke="none" d="
M269.618591,182.625275 
	C268.020782,182.942123 266.745667,182.942123 265.236847,182.942123 
	C265.236847,181.333496 265.236847,179.942001 265.236847,178.223480 
	C266.578949,178.134415 267.973267,178.041870 269.941254,177.911255 
	C269.941254,179.520477 269.941254,180.914444 269.618591,182.625275 
z" data-index="30" style="visibility: hidden;"></path>

<path fill="#F1FAEE" opacity="1.000000" stroke="none" d="
M251.910675,214.199585 
	C249.940796,213.917755 248.048264,213.288315 246.098877,212.271942 
	C250.112488,212.594345 249.953918,210.268646 249.482254,207.149200 
	C253.458084,208.146439 251.369537,211.596924 251.910675,214.199585 
z" data-index="32" style="visibility: hidden;"></path>

<path fill="#F1FAEE" opacity="1.000000" stroke="none" d="
M251.292084,217.865753 
	C251.091797,217.560822 251.183029,217.288300 251.527893,216.662903 
	C251.715561,216.839401 251.649582,217.368774 251.292084,217.865753 
z" data-index="34" style="visibility: hidden;"></path>

<path fill="#000000" opacity="1.000000" stroke="none" d="
M240.984680,219.824646 
	C241.123154,219.337708 241.311569,219.204956 241.782562,219.271576 
	C241.721619,219.706909 241.378113,219.942886 240.984680,219.824646 
z" data-index="36" style="visibility: hidden;"></path>
</svg>