<svg xmlns="http://www.w3.org/2000/svg" xmlns:xlink="http://www.w3.org/1999/xlink" width="500" zoomAndPan="magnify" viewBox="0 0 375 374.999991" height="500" preserveAspectRatio="xMidYMid meet" version="1.0"><defs><g/><clipPath id="f62532bb08"><path d="M 85.179688 20.445312 L 289.929688 20.445312 L 289.929688 286 L 85.179688 286 Z M 85.179688 20.445312 " clip-rule="nonzero"/></clipPath><clipPath id="2f26e1df24"><path d="M 99.636719 39.636719 L 275.136719 39.636719 L 275.136719 215.136719 L 99.636719 215.136719 Z M 99.636719 39.636719 " clip-rule="nonzero"/></clipPath><clipPath id="c99cfb58b0"><path d="M 146.800781 82.675781 L 228.199219 82.675781 L 228.199219 165 L 146.800781 165 Z M 146.800781 82.675781 " clip-rule="nonzero"/></clipPath></defs><g clip-path="url(#f62532bb08)"><path fill="#ffffff" d="M 187.546875 31.296875 C 137.1875 31.296875 96.214844 72.265625 96.214844 122.625 C 96.214844 144.058594 105.03125 163.445312 113.652344 179.585938 C 116.738281 185.351562 120.082031 191.074219 123.589844 196.59375 C 124.832031 198.535156 126.226562 200.5 127.707031 202.582031 C 134.929688 212.722656 143.917969 225.34375 144.464844 249.761719 L 144.464844 259.152344 C 144.464844 267.929688 151.605469 275.070312 160.386719 275.070312 L 214.710938 275.070312 C 223.492188 275.070312 230.632812 267.929688 230.632812 259.152344 L 230.632812 248.621094 L 230.636719 248.433594 C 231.464844 224.898438 240.261719 212.535156 247.339844 202.605469 C 248.820312 200.515625 250.222656 198.542969 251.472656 196.589844 C 260.25 182.828125 266.371094 171.421875 270.734375 160.699219 C 273.753906 153.257812 275.886719 146.304688 277.242188 139.449219 C 278.328125 134.046875 278.878906 128.390625 278.878906 122.625 C 278.878906 72.265625 237.902344 31.296875 187.546875 31.296875 Z M 214.710938 285.972656 L 160.386719 285.972656 C 145.59375 285.972656 133.5625 273.945312 133.5625 259.152344 L 133.5625 249.886719 C 133.089844 228.9375 125.84375 218.75 118.832031 208.902344 C 117.265625 206.707031 115.792969 204.632812 114.394531 202.453125 C 110.734375 196.699219 107.25 190.734375 104.035156 184.726562 C 94.777344 167.390625 85.3125 146.460938 85.3125 122.625 C 85.3125 66.25 131.175781 20.394531 187.546875 20.394531 C 243.917969 20.394531 289.777344 66.25 289.777344 122.625 C 289.777344 129.109375 289.15625 135.484375 287.933594 141.578125 C 286.441406 149.113281 284.121094 156.714844 280.832031 164.804688 C 276.214844 176.160156 269.804688 188.121094 260.664062 202.449219 C 259.265625 204.640625 257.785156 206.722656 256.21875 208.921875 C 249.359375 218.558594 242.265625 228.523438 241.535156 248.71875 L 241.535156 259.152344 C 241.535156 273.945312 229.503906 285.972656 214.710938 285.972656 " fill-opacity="1" fill-rule="nonzero"/></g><path fill="#ffffff" d="M 152.550781 340.660156 L 173.503906 350.769531 C 181.265625 354.511719 193.832031 354.511719 201.589844 350.769531 L 222.546875 340.660156 L 152.550781 340.660156 " fill-opacity="1" fill-rule="nonzero"/><path fill="#ffffff" d="M 226.816406 337.078125 C 226.816406 340.085938 224.378906 342.535156 221.355469 342.535156 L 153.738281 342.535156 C 150.722656 342.535156 148.277344 340.085938 148.277344 337.078125 C 148.277344 334.054688 150.722656 331.617188 153.738281 331.617188 L 221.355469 331.617188 C 224.378906 331.617188 226.816406 334.054688 226.816406 337.078125 " fill-opacity="1" fill-rule="nonzero"/><path fill="#ffffff" d="M 231.347656 321.363281 C 231.347656 324.382812 228.898438 326.824219 225.886719 326.824219 L 149.210938 326.824219 C 146.195312 326.824219 143.746094 324.382812 143.746094 321.363281 C 143.746094 318.347656 146.195312 315.902344 149.210938 315.902344 L 225.886719 315.902344 C 228.898438 315.902344 231.347656 318.347656 231.347656 321.363281 " fill-opacity="1" fill-rule="nonzero"/><path fill="#ffffff" d="M 231.347656 305.652344 C 231.347656 308.671875 228.898438 311.121094 225.886719 311.121094 L 149.210938 311.121094 C 146.195312 311.121094 143.746094 308.671875 143.746094 305.652344 C 143.746094 302.640625 146.195312 300.195312 149.210938 300.195312 L 225.886719 300.195312 C 228.898438 300.195312 231.347656 302.640625 231.347656 305.652344 " fill-opacity="1" fill-rule="nonzero"/><path fill="#ffffff" d="M 236.101562 289.949219 C 236.101562 292.960938 233.65625 295.402344 230.636719 295.402344 L 144.453125 295.402344 C 141.441406 295.402344 138.996094 292.960938 138.996094 289.949219 C 138.996094 286.9375 141.441406 284.488281 144.453125 284.488281 L 230.636719 284.488281 C 233.65625 284.488281 236.101562 286.9375 236.101562 289.949219 " fill-opacity="1" fill-rule="nonzero"/><g clip-path="url(#2f26e1df24)"><path fill="#ffffff" d="M 187.496094 215.328125 C 185.761719 215.328125 184.003906 215.277344 182.269531 215.171875 L 181.078125 215.101562 L 175.097656 201.417969 C 170.390625 200.628906 165.757812 199.386719 161.289062 197.71875 L 149.265625 206.578125 L 148.199219 206.042969 C 145.09375 204.492188 142.050781 202.730469 139.148438 200.816406 L 138.148438 200.160156 L 139.8125 185.320312 C 136.132812 182.28125 132.738281 178.890625 129.703125 175.210938 L 114.863281 176.875 L 114.203125 175.875 C 112.289062 172.972656 110.53125 169.929688 108.976562 166.824219 L 108.445312 165.757812 L 117.304688 153.734375 C 115.636719 149.261719 114.394531 144.628906 113.605469 139.925781 L 99.921875 133.945312 L 99.851562 132.75 C 99.644531 129.285156 99.644531 125.769531 99.851562 122.300781 L 99.921875 121.109375 L 113.605469 115.125 C 114.394531 110.425781 115.636719 105.789062 117.304688 101.316406 L 108.445312 89.296875 L 108.980469 88.230469 C 110.53125 85.125 112.289062 82.078125 114.207031 79.179688 L 114.863281 78.179688 L 129.703125 79.84375 C 132.742188 76.164062 136.132812 72.769531 139.8125 69.734375 L 138.152344 54.890625 L 139.148438 54.234375 C 142.054688 52.320312 145.097656 50.5625 148.199219 49.007812 L 149.265625 48.472656 L 161.289062 57.335938 C 165.757812 55.667969 170.394531 54.425781 175.097656 53.632812 L 181.078125 39.949219 L 182.269531 39.878906 C 185.734375 39.671875 189.257812 39.671875 192.722656 39.878906 L 193.914062 39.949219 L 199.898438 53.632812 C 204.601562 54.425781 209.234375 55.667969 213.703125 57.335938 L 225.726562 48.472656 L 226.796875 49.007812 C 229.898438 50.5625 232.941406 52.320312 235.847656 54.234375 L 236.84375 54.890625 L 235.179688 69.734375 C 238.859375 72.769531 242.253906 76.164062 245.289062 79.84375 L 260.132812 78.179688 L 260.789062 79.179688 C 262.703125 82.078125 264.460938 85.125 266.015625 88.230469 L 266.550781 89.296875 L 257.6875 101.316406 C 259.355469 105.789062 260.597656 110.421875 261.390625 115.128906 L 275.074219 121.109375 L 275.144531 122.300781 C 275.351562 125.769531 275.351562 129.285156 275.144531 132.75 L 275.074219 133.945312 L 261.390625 139.925781 C 260.597656 144.632812 259.355469 149.265625 257.6875 153.734375 L 266.550781 165.757812 L 266.015625 166.824219 C 264.460938 169.929688 262.703125 172.976562 260.789062 175.875 L 260.132812 176.875 L 245.289062 175.210938 C 242.253906 178.890625 238.859375 182.285156 235.179688 185.320312 L 236.84375 200.160156 L 235.847656 200.816406 C 232.945312 202.734375 229.898438 204.492188 226.796875 206.042969 L 225.726562 206.578125 L 213.703125 197.71875 C 209.238281 199.386719 204.601562 200.628906 199.898438 201.417969 L 193.914062 215.101562 L 192.722656 215.171875 C 190.992188 215.277344 189.230469 215.328125 187.496094 215.328125 Z M 183.691406 211.339844 C 186.226562 211.453125 188.765625 211.453125 191.300781 211.339844 L 197.175781 197.894531 L 198.238281 197.734375 C 203.382812 196.945312 208.449219 195.589844 213.296875 193.699219 L 214.296875 193.308594 L 226.109375 202.011719 C 228.355469 200.847656 230.5625 199.574219 232.699219 198.210938 L 231.0625 183.625 L 231.902344 182.957031 C 235.960938 179.703125 239.671875 175.996094 242.925781 171.933594 L 243.597656 171.09375 L 258.179688 172.726562 C 259.542969 170.59375 260.820312 168.386719 261.984375 166.140625 L 253.277344 154.328125 L 253.667969 153.324219 C 255.558594 148.480469 256.914062 143.414062 257.703125 138.269531 L 257.863281 137.207031 L 271.308594 131.328125 C 271.425781 128.800781 271.425781 126.25 271.308594 123.722656 L 257.863281 117.847656 L 257.703125 116.785156 C 256.914062 111.640625 255.558594 106.574219 253.667969 101.726562 L 253.277344 100.726562 L 261.984375 88.914062 C 260.820312 86.667969 259.542969 84.460938 258.179688 82.324219 L 243.597656 83.957031 L 242.925781 83.121094 C 239.671875 79.058594 235.960938 75.351562 231.902344 72.097656 L 231.0625 71.425781 L 232.699219 56.84375 C 230.5625 55.476562 228.355469 54.203125 226.109375 53.039062 L 214.296875 61.746094 L 213.296875 61.355469 C 208.449219 59.464844 203.382812 58.109375 198.238281 57.320312 L 197.175781 57.160156 L 191.300781 43.714844 C 188.765625 43.597656 186.226562 43.597656 183.691406 43.714844 L 177.816406 57.160156 L 176.753906 57.320312 C 171.609375 58.109375 166.542969 59.464844 161.699219 61.355469 L 160.695312 61.746094 L 148.882812 53.039062 C 146.640625 54.203125 144.429688 55.476562 142.296875 56.84375 L 143.929688 71.425781 L 143.089844 72.097656 C 139.03125 75.351562 135.320312 79.058594 132.066406 83.121094 L 131.394531 83.957031 L 116.8125 82.324219 C 115.449219 84.457031 114.175781 86.667969 113.007812 88.914062 L 121.714844 100.726562 L 121.324219 101.726562 C 119.433594 106.578125 118.078125 111.644531 117.289062 116.785156 L 117.128906 117.84375 L 103.683594 123.722656 C 103.570312 126.25 103.570312 128.800781 103.683594 131.328125 L 117.128906 137.207031 L 117.289062 138.269531 C 118.078125 143.410156 119.433594 148.476562 121.324219 153.324219 L 121.714844 154.328125 L 113.007812 166.140625 C 114.175781 168.386719 115.449219 170.59375 116.8125 172.726562 L 131.394531 171.09375 L 132.066406 171.933594 C 135.320312 175.992188 139.03125 179.703125 143.089844 182.953125 L 143.929688 183.625 L 142.296875 198.207031 C 144.429688 199.574219 146.636719 200.847656 148.882812 202.011719 L 160.695312 193.308594 L 161.699219 193.699219 C 166.542969 195.585938 171.609375 196.945312 176.753906 197.730469 L 177.816406 197.894531 Z M 187.496094 190.75 C 152.636719 190.75 124.273438 162.386719 124.273438 127.527344 C 124.273438 92.667969 152.636719 64.304688 187.496094 64.304688 C 222.355469 64.304688 250.71875 92.664062 250.71875 127.527344 C 250.71875 162.386719 222.359375 190.75 187.496094 190.75 Z M 187.496094 68.207031 C 154.789062 68.207031 128.175781 94.816406 128.175781 127.527344 C 128.175781 160.234375 154.789062 186.847656 187.496094 186.847656 C 220.207031 186.847656 246.816406 160.234375 246.816406 127.527344 C 246.816406 94.816406 220.207031 68.207031 187.496094 68.207031 Z M 187.496094 68.207031 " fill-opacity="1" fill-rule="nonzero"/></g><g clip-path="url(#c99cfb58b0)"><path fill="#ffffff" d="M 148.089844 161.535156 L 149.730469 161.535156 L 149.730469 99.136719 C 149.730469 98.464844 150.140625 97.871094 150.75 97.609375 L 186.875 82.832031 C 187.269531 82.683594 187.726562 82.683594 188.121094 82.832031 L 224.246094 97.609375 C 224.855469 97.871094 225.265625 98.464844 225.265625 99.136719 L 225.265625 128.691406 C 225.265625 129.597656 224.527344 130.335938 223.621094 130.335938 C 222.71875 130.335938 221.980469 129.597656 221.980469 128.691406 L 221.980469 100.238281 L 187.5 86.132812 L 153.015625 100.238281 L 153.015625 161.535156 L 159.582031 161.535156 L 159.582031 112.273438 L 157.941406 112.273438 C 157.039062 112.273438 156.300781 111.535156 156.300781 110.632812 C 156.300781 109.726562 157.039062 108.988281 157.941406 108.988281 L 217.054688 108.988281 C 217.957031 108.988281 218.695312 109.726562 218.695312 110.632812 C 218.695312 111.535156 217.957031 112.273438 217.054688 112.273438 L 215.414062 112.273438 L 215.414062 161.535156 L 221.980469 161.535156 L 221.980469 141.828125 C 221.980469 140.925781 222.71875 140.1875 223.621094 140.1875 C 224.527344 140.1875 225.265625 140.925781 225.265625 141.828125 L 225.265625 161.535156 L 226.90625 161.535156 C 227.808594 161.535156 228.550781 162.273438 228.550781 163.175781 C 228.550781 164.078125 227.808594 164.816406 226.90625 164.816406 L 148.089844 164.816406 C 147.1875 164.816406 146.449219 164.078125 146.449219 163.175781 C 146.449219 162.273438 147.1875 161.535156 148.089844 161.535156 Z M 189.140625 161.535156 L 205.558594 161.535156 L 205.558594 148.398438 L 202.277344 148.398438 L 202.277344 153.324219 C 202.277344 154.226562 201.539062 154.964844 200.632812 154.964844 L 194.066406 154.964844 C 193.164062 154.964844 192.425781 154.226562 192.425781 153.324219 L 192.425781 148.398438 L 189.140625 148.398438 Z M 198.992188 151.683594 L 198.992188 148.398438 L 195.707031 148.398438 L 195.707031 151.683594 Z M 169.4375 161.535156 L 185.855469 161.535156 L 185.855469 148.398438 L 182.570312 148.398438 L 182.570312 153.324219 C 182.570312 154.226562 181.832031 154.964844 180.929688 154.964844 L 174.363281 154.964844 C 173.457031 154.964844 172.71875 154.226562 172.71875 153.324219 L 172.71875 148.398438 L 169.4375 148.398438 Z M 179.289062 151.683594 L 179.289062 148.398438 L 176.003906 148.398438 L 176.003906 151.683594 Z M 169.4375 145.113281 L 185.855469 145.113281 L 185.855469 131.976562 L 182.570312 131.976562 L 182.570312 136.902344 C 182.570312 137.804688 181.832031 138.546875 180.929688 138.546875 L 174.363281 138.546875 C 173.457031 138.546875 172.71875 137.804688 172.71875 136.902344 L 172.71875 131.976562 L 169.4375 131.976562 Z M 179.289062 135.261719 L 179.289062 131.976562 L 176.003906 131.976562 L 176.003906 135.261719 Z M 162.867188 161.535156 L 166.152344 161.535156 L 166.152344 130.335938 C 166.152344 129.433594 166.890625 128.691406 167.792969 128.691406 L 187.5 128.691406 C 188.402344 128.691406 189.140625 129.433594 189.140625 130.335938 L 189.140625 145.113281 L 207.203125 145.113281 C 208.105469 145.113281 208.84375 145.851562 208.84375 146.753906 L 208.84375 161.535156 L 212.128906 161.535156 L 212.128906 125.410156 L 162.867188 125.410156 Z M 162.867188 122.125 L 212.128906 122.125 L 212.128906 118.839844 L 162.867188 118.839844 Z M 162.867188 115.558594 L 212.128906 115.558594 L 212.128906 112.273438 L 162.867188 112.273438 Z M 162.867188 115.558594 " fill-opacity="1" fill-rule="nonzero"/></g><path fill="#ffffff" d="M 182.570312 100.777344 C 182.570312 98.0625 184.78125 95.851562 187.5 95.851562 C 190.214844 95.851562 192.425781 98.0625 192.425781 100.777344 C 192.425781 103.496094 190.214844 105.703125 187.5 105.703125 C 184.78125 105.703125 182.570312 103.496094 182.570312 100.777344 Z M 189.140625 100.777344 C 189.140625 99.875 188.402344 99.136719 187.5 99.136719 C 186.59375 99.136719 185.855469 99.875 185.855469 100.777344 C 185.855469 101.683594 186.59375 102.421875 187.5 102.421875 C 188.402344 102.421875 189.140625 101.683594 189.140625 100.777344 Z M 189.140625 100.777344 " fill-opacity="1" fill-rule="nonzero"/><path fill="#ffffff" d="M 195.707031 100.777344 C 195.707031 98.0625 197.917969 95.851562 200.632812 95.851562 C 203.351562 95.851562 205.558594 98.0625 205.558594 100.777344 C 205.558594 103.496094 203.351562 105.703125 200.632812 105.703125 C 197.917969 105.703125 195.707031 103.496094 195.707031 100.777344 Z M 202.277344 100.777344 C 202.277344 99.875 201.539062 99.136719 200.632812 99.136719 C 199.730469 99.136719 198.992188 99.875 198.992188 100.777344 C 198.992188 101.683594 199.730469 102.421875 200.632812 102.421875 C 201.539062 102.421875 202.277344 101.683594 202.277344 100.777344 Z M 202.277344 100.777344 " fill-opacity="1" fill-rule="nonzero"/><path fill="#ffffff" d="M 169.4375 100.777344 C 169.4375 98.0625 171.644531 95.851562 174.363281 95.851562 C 177.078125 95.851562 179.289062 98.0625 179.289062 100.777344 C 179.289062 103.496094 177.078125 105.703125 174.363281 105.703125 C 171.644531 105.703125 169.4375 103.496094 169.4375 100.777344 Z M 176.003906 100.777344 C 176.003906 99.875 175.269531 99.136719 174.363281 99.136719 C 173.457031 99.136719 172.71875 99.875 172.71875 100.777344 C 172.71875 101.683594 173.457031 102.421875 174.363281 102.421875 C 175.269531 102.421875 176.003906 101.683594 176.003906 100.777344 Z M 176.003906 100.777344 " fill-opacity="1" fill-rule="nonzero"/><path fill="#ffffff" d="M 221.980469 135.261719 C 221.980469 135.480469 222.023438 135.6875 222.105469 135.890625 C 222.1875 136.089844 222.308594 136.269531 222.460938 136.421875 C 222.617188 136.578125 222.792969 136.695312 222.996094 136.777344 C 223.195312 136.863281 223.40625 136.902344 223.621094 136.902344 C 223.839844 136.902344 224.050781 136.863281 224.25 136.777344 C 224.453125 136.695312 224.628906 136.578125 224.785156 136.421875 C 224.9375 136.269531 225.054688 136.089844 225.140625 135.890625 C 225.222656 135.6875 225.265625 135.480469 225.265625 135.261719 C 225.265625 135.042969 225.222656 134.835938 225.140625 134.632812 C 225.054688 134.433594 224.9375 134.253906 224.785156 134.101562 C 224.628906 133.945312 224.453125 133.828125 224.25 133.746094 C 224.050781 133.660156 223.839844 133.621094 223.621094 133.621094 C 223.40625 133.621094 223.195312 133.660156 222.996094 133.746094 C 222.792969 133.828125 222.617188 133.945312 222.460938 134.101562 C 222.308594 134.253906 222.1875 134.433594 222.105469 134.632812 C 222.023438 134.835938 221.980469 135.042969 221.980469 135.261719 Z M 221.980469 135.261719 " fill-opacity="1" fill-rule="nonzero"/><g fill="#ffffff" fill-opacity="1"><g transform="translate(153.51562, 267.500138)"><g><path d="M 1.8125 -37.234375 C 1.8125 -41.203125 2.753906 -44.25 4.640625 -46.375 C 6.535156 -48.5 9.375 -49.5625 13.15625 -49.5625 C 16.9375 -49.5625 19.769531 -48.5 21.65625 -46.375 C 23.550781 -44.25 24.5 -41.203125 24.5 -37.234375 L 24.5 -35.703125 L 17.21875 -35.703125 L 17.21875 -37.734375 C 17.21875 -39.503906 16.878906 -40.75 16.203125 -41.46875 C 15.523438 -42.195312 14.582031 -42.5625 13.375 -42.5625 C 12.15625 -42.5625 11.207031 -42.195312 10.53125 -41.46875 C 9.851562 -40.75 9.515625 -39.503906 9.515625 -37.734375 C 9.515625 -36.046875 9.890625 -34.5625 10.640625 -33.28125 C 11.390625 -32 12.320312 -30.785156 13.4375 -29.640625 C 14.5625 -28.503906 15.765625 -27.363281 17.046875 -26.21875 C 18.328125 -25.070312 19.523438 -23.820312 20.640625 -22.46875 C 21.765625 -21.113281 22.695312 -19.570312 23.4375 -17.84375 C 24.1875 -16.125 24.5625 -14.097656 24.5625 -11.765625 C 24.5625 -7.796875 23.59375 -4.75 21.65625 -2.625 C 19.726562 -0.5 16.875 0.5625 13.09375 0.5625 C 9.3125 0.5625 6.453125 -0.5 4.515625 -2.625 C 2.578125 -4.75 1.609375 -7.796875 1.609375 -11.765625 L 1.609375 -14.765625 L 8.890625 -14.765625 L 8.890625 -11.265625 C 8.890625 -9.492188 9.25 -8.257812 9.96875 -7.5625 C 10.695312 -6.863281 11.664062 -6.515625 12.875 -6.515625 C 14.09375 -6.515625 15.0625 -6.863281 15.78125 -7.5625 C 16.507812 -8.257812 16.875 -9.492188 16.875 -11.265625 C 16.875 -12.953125 16.5 -14.4375 15.75 -15.71875 C 15 -17 14.0625 -18.207031 12.9375 -19.34375 C 11.820312 -20.488281 10.625 -21.632812 9.34375 -22.78125 C 8.0625 -23.925781 6.859375 -25.175781 5.734375 -26.53125 C 4.617188 -27.882812 3.6875 -29.421875 2.9375 -31.140625 C 2.1875 -32.867188 1.8125 -34.898438 1.8125 -37.234375 Z M 1.8125 -37.234375 "/></g></g></g><g fill="#ffffff" fill-opacity="1"><g transform="translate(179.694185, 267.500138)"><g><path d="M 2.796875 -49 L 10.5 -49 L 10.5 0 L 2.796875 0 Z M 2.796875 -49 "/></g></g></g><g fill="#ffffff" fill-opacity="1"><g transform="translate(192.993454, 267.500138)"><g><path d="M 27.71875 0 L 19.953125 0 L 18.625 -8.890625 L 9.171875 -8.890625 L 7.84375 0 L 0.765625 0 L 8.609375 -49 L 19.875 -49 Z M 10.15625 -15.546875 L 17.5625 -15.546875 L 13.859375 -40.3125 Z M 10.15625 -15.546875 "/></g></g></g></svg>